<svg xmlns="http://www.w3.org/2000/svg" width="1em" height="1em" fill="currentColor" fill-rule="evenodd" style="flex:none;line-height:1" viewBox="0 0 24 24"><path d="M8.086.457a6.1 6.1 0 0 1 3.046-.415q2 .23 3.564 1.7a.12.12 0 0 0 .107.029q2.112-.519 4.061.366l.063.03.154.076q2.036 1.055 2.918 3.198a5.6 5.6 0 0 1 .421 2.126 5.7 5.7 0 0 1-.18 1.631.17.17 0 0 0 .04.155 6 6 0 0 1 1.578 2.891q.577 2.852-1.183 5.14l-.182.22a6.06 6.06 0 0 1-2.934 1.851.16.16 0 0 0-.108.102c-.255.736-.511 1.364-.987 1.992-1.199 1.582-2.962 2.462-4.948 2.451q-2.374-.012-4.21-1.736a.14.14 0 0 0-.14-.032c-.518.167-1.04.191-1.604.185a5.9 5.9 0 0 1-2.595-.622 6.06 6.06 0 0 1-2.146-1.781c-.203-.269-.404-.522-.551-.821a8 8 0 0 1-.495-1.283 6.1 6.1 0 0 1-.017-3.064.2.2 0 0 0 .008-.074.1.1 0 0 0-.037-.064 6 6 0 0 1-1.38-2.202 5.2 5.2 0 0 1-.333-1.589 6.9 6.9 0 0 1 .188-2.132q.675-2.226 2.577-3.493.424-.282.802-.438.429-.179.861-.304a.13.13 0 0 0 .087-.087A6 6 0 0 1 5.635 2.31Q6.655 1.04 8.086.457" clip-rule="evenodd"/></svg>