<svg xmlns="http://www.w3.org/2000/svg" viewBox="0 0 24 24">
	<g fill="none" fill-rule="evenodd">
		<path d="m12.594 23.258l-.012.002l-.071.035l-.02.004l-.014-.004l-.071-.036q-.016-.004-.024.006l-.004.01l-.017.428l.005.02l.01.013l.104.074l.015.004l.012-.004l.104-.074l.012-.016l.004-.017l-.017-.427q-.004-.016-.016-.018m.264-.113l-.014.002l-.184.093l-.01.01l-.003.011l.018.43l.005.012l.008.008l.201.092q.019.005.029-.008l.004-.014l-.034-.614q-.005-.019-.02-.022m-.715.002a.02.02 0 0 0-.027.006l-.006.014l-.034.614q.001.018.017.024l.015-.002l.201-.093l.01-.008l.003-.011l.018-.43l-.003-.012l-.01-.01z" />
		<path fill="currentColor" d="M9.522 2.5a1.5 1.5 0 0 1 1.422 1.094l3.26 11.59l1.391-3.71A1.5 1.5 0 0 1 17 10.5h3a1.5 1.5 0 0 1 0 3h-1.96l-2.635 7.027a1.5 1.5 0 0 1-2.849-.12L9.424 9.27l-.992 3.176A1.5 1.5 0 0 1 7 13.5H4a1.5 1.5 0 0 1 0-3h1.897l2.171-6.947A1.5 1.5 0 0 1 9.522 2.5" />
	</g>
</svg>
