<svg xmlns="http://www.w3.org/2000/svg" width="1em" height="1em" viewBox="0 0 24 24"><path fill="none" d="M0 0h24v24H0z"/><g fill="none"><path d="m12.593 23.258-.011.002-.071.035-.02.004-.014-.004-.071-.035q-.016-.005-.024.005l-.004.01-.017.428.005.02.01.013.104.074.015.004.012-.004.104-.074.012-.016.004-.017-.017-.427q-.004-.016-.017-.018m.265-.113-.013.002-.185.093-.01.01-.003.011.018.43.005.012.008.007.201.093q.019.005.029-.008l.004-.014-.034-.614q-.005-.018-.02-.022m-.715.002a.02.02 0 0 0-.027.006l-.006.014-.034.614q.001.018.017.024l.015-.002.201-.093.01-.008.004-.011.017-.43-.003-.012-.01-.01z"/><path fill="currentColor" d="M13.176 3.434a1 1 0 1 1 1.648 1.133l-1.61 2.342L21.526 19H22a1 1 0 1 1 0 2h-4.634l-.044-.07-4.492-6.487a1.01 1.01 0 0 0-1.66 0L6.678 20.93l-.044.07H2a1 1 0 0 1 0-2h.474l8.313-12.092-1.611-2.342a1 1 0 0 1 1.648-1.133L12 5.144ZM12 16.757 14.938 21H9.062z"/></g></svg>